<svg width="336" height="336" viewBox="0 0 336 336" fill="none" xmlns="http://www.w3.org/2000/svg">
<path d="M112 231H216.65V245H112V231ZM200.389 287H258.65V301H200.389V287ZM196 77H168C166.143 77 164.363 76.2625 163.05 74.9497C161.737 73.637 161 71.8565 161 70C161 68.1435 161.737 66.363 163.05 65.0503C164.363 63.7375 166.143 63 168 63H196C197.857 63 199.637 63.7375 200.95 65.0503C202.263 66.363 203 68.1435 203 70C203 71.8565 202.263 73.637 200.95 74.9497C199.637 76.2625 197.857 77 196 77ZM259 105H182C180.143 105 178.363 104.263 177.05 102.95C175.737 101.637 175 99.8565 175 98C175 96.1435 175.737 94.363 177.05 93.0503C178.363 91.7375 180.143 91 182 91H259C260.857 91 262.637 91.7375 263.95 93.0503C265.263 94.363 266 96.1435 266 98C266 99.8565 265.263 101.637 263.95 102.95C262.637 104.263 260.857 105 259 105ZM252 133H161C159.143 133 157.363 132.263 156.05 130.95C154.737 129.637 154 127.857 154 126C154 124.143 154.737 122.363 156.05 121.05C157.363 119.737 159.143 119 161 119H252C253.857 119 255.637 119.737 256.95 121.05C258.263 122.363 259 124.143 259 126C259 127.857 258.263 129.637 256.95 130.95C255.637 132.263 253.857 133 252 133ZM259 161H161C159.143 161 157.363 160.263 156.05 158.95C154.737 157.637 154 155.857 154 154C154 152.143 154.737 150.363 156.05 149.05C157.363 147.737 159.143 147 161 147H259C260.857 147 262.637 147.737 263.95 149.05C265.263 150.363 266 152.143 266 154C266 155.857 265.263 157.637 263.95 158.95C262.637 160.263 260.857 161 259 161ZM245 189H161C159.143 189 157.363 188.263 156.05 186.95C154.737 185.637 154 183.857 154 182C154 180.143 154.737 178.363 156.05 177.05C157.363 175.737 159.143 175 161 175H245C246.857 175 248.637 175.737 249.95 177.05C251.263 178.363 252 180.143 252 182C252 183.857 251.263 185.637 249.95 186.95C248.637 188.263 246.857 189 245 189ZM252 217H154C152.143 217 150.363 216.263 149.05 214.95C147.737 213.637 147 211.857 147 210C147 208.143 147.737 206.363 149.05 205.05C150.363 203.737 152.143 203 154 203H252C253.857 203 255.637 203.737 256.95 205.05C258.263 206.363 259 208.143 259 210C259 211.857 258.263 213.637 256.95 214.95C255.637 216.263 253.857 217 252 217ZM140.35 0H315V14H140.35V0Z" fill="white"/>
<path d="M174.65 329H0V315C5.789 315 9.968 313.628 12.775 310.793C19.432 304.094 19.32 288.512 19.222 274.771C19.11 259.413 19.012 244.895 27.153 236.705C30.919 232.918 35.91 231 42 231H106.218C120.323 154.238 119.014 29.365 119 28.084C119.161 18.235 123.83 0 140.35 0V14C133.651 14 133 27.972 133 28.119C133.063 33.348 134.4 161.84 118.86 239.379L117.733 245H42C39.004 245 37.765 245.896 37.093 246.575C33.054 250.642 33.145 263.41 33.222 274.68C33.32 288.561 33.432 304.003 27.027 315H174.65C180.439 315 184.618 313.628 187.425 310.793C194.082 304.094 193.97 288.512 193.872 274.771C193.76 259.413 193.662 244.895 201.803 236.705C205.569 232.918 210.567 231 216.65 231C223.748 231 229.292 232.967 233.142 236.859C239.624 243.411 239.526 253.141 239.421 262.556C239.337 270.487 239.253 278.684 243.299 282.772C246.078 285.579 251.244 287 258.65 287C259.406 287 261.716 287 264.873 283.759C293.23 254.646 295.26 89.397 293.65 28.182C293.811 18.235 298.48 0 315 0C333.27 0 336 35.091 336 56V63H308.091C308.21 128.982 304.647 262.99 274.904 293.531C270.074 298.487 264.607 301 258.65 301C247.212 301 238.931 298.256 233.352 292.614C225.197 284.375 225.323 272.706 225.428 262.416C225.498 255.871 225.568 249.116 223.195 246.715C221.795 245.294 218.869 245 216.65 245C213.654 245 212.415 245.896 211.743 246.575C207.704 250.642 207.795 263.41 207.872 274.68C207.984 291.158 208.117 309.827 197.358 320.663C191.87 326.2 184.226 329 174.65 329ZM308.007 49H321.846C321.125 31.878 317.919 16.044 314.454 13.867C308.301 14 307.65 27.972 307.65 28.119C307.741 31.493 307.909 38.829 308.007 49Z" fill="white"/>
</svg>
